M48
; DRILL file {KiCad (5.1.12)-1} date 03/07/22 16:55:25
; FORMAT={-:-/ absolute / inch / decimal}
; #@! TF.CreationDate,2022-03-07T16:55:25+01:00
; #@! TF.GenerationSoftware,Kicad,Pcbnew,(5.1.12)-1
; #@! TF.FileFunction,Plated,1,2,PTH
FMAT,2
INCH
T1C0.0157
T2C0.0295
T3C0.0315
T4C0.0354
T5C0.0394
T6C0.0512
%
G90
G05
T1
X4.5669Y-4.2126
X5.122Y-5.4724
X5.5197Y-5.0709
T2
X4.5457Y-4.8031
X4.5957Y-4.7531
X4.6063Y-5.3937
X4.6457Y-4.8031
X4.6563Y-5.3437
X4.7063Y-5.3937
X4.8425Y-5.3937
X4.8925Y-5.3437
X4.9425Y-5.3937
X5.4118Y-4.6614
X5.4618Y-4.7114
X5.5118Y-4.6614
X5.7087Y-4.4488
X5.7587Y-4.3988
X5.8087Y-4.4488
T3
X4.0157Y-4.252
X4.0551Y-4.4882
X4.0551Y-4.6213
X4.0551Y-4.9213
X4.0551Y-5.0394
X4.0551Y-5.2362
X4.0551Y-5.3937
X4.0551Y-5.5906
X4.2362Y-4.626
X4.2362Y-4.9213
X4.252Y-4.4882
X4.252Y-5.0394
X4.252Y-5.3394
X4.252Y-5.5268
X4.252Y-5.8268
X4.311Y-4.252
X4.4134Y-4.626
X4.4134Y-4.926
X4.4488Y-4.3307
X4.4488Y-4.5276
X4.4882Y-5.5315
X4.4882Y-5.8268
X4.5669Y-4.9362
X4.5669Y-5.2362
X4.6457Y-4.3307
X4.6457Y-4.6307
X4.7638Y-5.1969
X4.7638Y-5.5315
X4.7638Y-5.8268
X4.8425Y-4.4094
X4.8425Y-4.626
X4.8425Y-4.9213
X4.9409Y-4.4094
X5.0Y-5.5268
X5.0Y-5.8268
X5.0638Y-5.1969
X5.0787Y-4.622
X5.0787Y-4.922
X5.1575Y-4.2126
X5.1937Y-4.4488
X5.1969Y-5.5268
X5.1969Y-5.8268
X5.2756Y-4.6213
X5.2756Y-4.9213
X5.2937Y-4.4488
X5.3543Y-5.0787
X5.3543Y-5.374
X5.3937Y-4.4488
X5.3937Y-5.5315
X5.3937Y-5.8268
X5.4528Y-4.2126
X5.5268Y-5.1575
X5.5268Y-5.3543
X5.6299Y-4.2126
X5.6299Y-5.5268
X5.6299Y-5.8268
X5.6575Y-4.752
X5.6575Y-5.0472
X5.8268Y-4.2126
X5.8268Y-5.1575
X5.8268Y-5.3543
X5.8268Y-5.5268
X5.8268Y-5.8268
T4
X4.4244Y-4.2126
X4.7244Y-4.2126
T5
X4.0551Y-5.7874
X4.8622Y-4.0354
X4.9606Y-4.0354
X5.1969Y-4.0472
X5.8189Y-4.8228
X5.8189Y-4.9665
T6
X4.0551Y-4.0551
X4.252Y-4.0551
X4.4488Y-4.0551
X4.7244Y-5.0394
X4.9213Y-5.0394
X5.1181Y-5.0394
X5.3937Y-4.0551
X5.5906Y-4.0551
X5.7874Y-4.0551
T0
M30
